<?xml version="1.0" encoding="UTF-8"?>
<!DOCTYPE svg PUBLIC "-//W3C//DTD SVG 1.1//EN" "http://www.w3.org/Graphics/SVG/1.1/DTD/svg11.dtd">
<!-- Creator: CorelDRAW X7 -->
<svg version="1.1" id="Layer_1" xmlns="http://www.w3.org/2000/svg" xmlns:xlink="http://www.w3.org/1999/xlink" x="0px" y="0px" viewBox="0 0 1200 1200" enable-background="new 0 0 1200 1200" xml:space="preserve">
<g>
	<path fill="#03566D" d="M679.235,251.084l-0.559-5.6c-1.023-10.314-2.077-20.981-4.069-31.179
		c-10.157-51.938-59.769-91.178-101.571-105.658c-47.456-16.45-108.041,7.125-144.245,35.985
		c-22.906,18.254-37.965,36.348-47.395,56.94c-10.829,23.645-17.316,52.199-19.806,87.232c2.766-0.45,5.641-0.766,8.148-0.887
		c1.999-0.126,3.997-0.246,6.023-0.246l0.126,0.005c6.245,0.454,15.56,1.886,24.329,9.047c6.75,5.513,16.951,5.513,25.952,5.513
		c25.921,0,52.617,1.347,78.432,2.65c34.509,1.741,70.196,3.544,105.084,2.219c0.638-0.026,1.317-0.036,2.026-0.036
		c2.541,0,5.498,0.138,8.588,0.281c10.184,0.472,22.862,1.064,29.284-2.81c3.83-2.311,6.143-6.107,8.592-10.126
		c3.209-5.27,6.531-10.718,13.544-13.556c2.33-0.943,4.195-1.318,5.696-1.62c3.114-0.628,3.441-0.692,3.213-6.122
		C680.316,265.668,679.979,258.379,679.235,251.084z M445.442,245.514c-5.225,4.492-11.757,6.905-18.425,6.905
		c-1.497,0-3.005-0.121-4.502-0.37c-8.861-1.463-16.511-7.331-20.471-15.698c-3.97-8.39-3.656-18.06,0.842-25.87
		c6.078-11.04,18.104-16.15,30.669-13.01c10.682,2.669,21.542,11.903,21.733,26.515
		C455.394,232.199,451.806,240.045,445.442,245.514z M630.148,236.547c-3.435,9.669-11.364,16.503-21.218,18.278
		c-1.606,0.29-3.223,0.431-4.826,0.431c-7.64,0-15.068-3.218-20.546-9.062c-6.542-6.978-9.113-16.525-6.883-25.536
		c2.374-10.056,10.27-17.872,20.611-20.396c10.43-2.556,21.116,0.769,27.896,8.651C631.731,216.528,633.586,226.858,630.148,236.547
		z"></path>
	<path fill="#03566D" d="M604.711,210.575c-3.534,0-6.968,1.223-9.758,3.165c-6.306,4.388-10.372,12.998-5.252,22.345
		c3.789,5.414,9.263,8.078,15.29,7.352c6.467-0.784,12.589-5.498,14.884-11.463c2.046-5.31,0.87-10.885-3.308-15.696
		C613.04,212.215,608.808,210.575,604.711,210.575z"></path>
	<path fill="#03566D" d="M432.55,208.587c-1.896-0.655-3.793-0.974-5.638-0.974c-4.608,0-8.888,2.002-12.06,5.793
		c-4.72,5.645-5.447,13.447-1.852,19.876c4.546,6.627,10.56,9.316,16.842,7.444c7.514-2.239,13.762-10.445,13.926-18.292
		C443.904,216.046,439.92,211.127,432.55,208.587z"></path>
	<path fill="#03566D" d="M697.486,317.517c0.01-1.308,0.041-2.662,0.072-4.043c0.13-5.832,0.266-11.866-1.078-17.057
		c-1.978-7.648-5.921-7.81-15.147-6.327c-8.602,1.383-11.422,6.209-14.686,11.796c-2.401,4.108-4.884,8.358-9.792,11.581
		c-8.762,5.757-22.715,5.288-33.916,4.911c-2.677-0.089-5.126-0.15-7.51-0.171c-43.435,1.143-87.962,0.367-136.094-2.37
		c-8.441-0.479-17.071-0.783-25.413-1.074c-12.521-0.44-25.468-0.894-38.125-1.959c-1.173-0.099-2.432-0.159-3.735-0.222
		c-5.733-0.276-12.234-0.59-16.736-4.115c-1.583-1.241-2.633-2.679-3.557-3.95c-1.044-1.431-1.944-2.669-3.479-3.62
		c-3.363-2.087-7.824-2.034-12.183-1.992l-1.644,0.012c-0.819,0.164-2.51,0.402-4.625,0.696c-4.468,0.621-11.221,1.559-15.021,2.613
		c-6.907,1.92-10.232,8.66-10.771,21.849c-0.563,13.72-0.471,25.916,6.378,36.259c9.56,14.733,35.096,15.063,51.989,15.282
		l3.325,0.048c7.207,0.121,14.857,0.128,22.736,0.02c1.115-0.015,2.606-0.2,4.182-0.394c1.982-0.246,4.004-0.495,5.815-0.495
		c1.296,0,2.486,0.128,3.472,0.481c2.831,1.015,4.888,3.322,6.876,5.554c1.143,1.277,2.217,2.485,3.377,3.385
		c18.37,14.298,45.85,16.334,60.629,16.197l5.065-0.024c25.85-0.106,61.246-0.251,80.547-10.159
		c1.054-0.553,2.162-1.073,3.267-1.589c1.231-0.575,2.452-1.146,3.595-1.772c0.873-0.498,1.681-1.226,2.538-1.997
		c1.896-1.709,4.26-3.835,8.684-4.517c3.257-0.503,6.576-0.802,9.785-1.09c2.729-0.246,5.457-0.489,8.165-0.859
		c21.948-2.993,38.22-9.702,49.745-20.51C695.702,347.122,697.384,332.122,697.486,317.517z"></path>
	<path fill="#03566D" d="M637.311,400.16l-1.726-0.351c-1.323-0.276-3.677-0.924-6.405-1.678
		c-4.502-1.243-13.882-3.825-15.546-3.436c0,0,0.177-0.044,0.382-0.23l-0.948-0.975l0.409,1.197
		c-0.43,0.193-2.507,1.509-3.748,2.295c-1.241,0.788-2.36,1.489-2.708,1.668c-2.35,1.168-8.752,3.895-13.22,5.2
		c-17.146,4.983-35.318,5.841-52.893,6.671l-7.193,0.353c-16.429,0.834-33.418,1.699-50.011-1.844
		c-8.585-1.832-17.077-4.657-25.243-8.395c-4.444-2.033-8.752-4.105-12.65-7.07c-0.737-0.561-1.576-1.463-2.551-2.509
		c-0.996-1.071-2.855-3.065-3.561-3.264c-0.798,0.198-3.155,3.276-4.564,5.114c-1.999,2.609-3.888,5.075-5.747,6.085
		c-4.025,2.188-8.939,3.274-12.592,3.81c7.633,12.732,7.875,29.929,8.07,43.913l0.034,2.26c0.229,14.449-1.044,30.415-3.895,48.807
		c-0.767,4.939-1.896,9.843-2.988,14.588c-0.6,2.606-1.201,5.213-1.746,7.836c-0.242,1.166-0.662,2.638-1.126,4.248
		c-1.054,3.673-2.5,8.702-1.876,11.376c1.129,4.83,7.336,12.502,11.044,17.086l1.081,1.339c2.101,2.618,5.454,4.813,8.697,6.934
		c3.632,2.376,7.06,4.62,9.093,7.544c3.373,4.862,3.479,12.442,3.581,19.772c0.068,4.87,0.133,9.47,1.139,12.804
		c3.776,12.512,12.456,19.903,29.032,24.716c2.793,0.812,6.982,1.085,11.416,1.371c9.584,0.624,20.444,1.33,23.145,8.087
		c1.088,2.718,1.197,5.57,1.303,8.326c0.113,3.025,0.222,5.883,1.528,8.581c2.899,5.999,11.852,12.002,14.854,12.93
		c6.9,2.275,14.339,2.715,21.549,1.303c10.027-0.034,21.675-10.024,26.361-17.238c2.538-3.912,2.541-5.788,2.544-8.895
		c0-1.739,0.003-3.714,0.44-6.409l0.239-1.586c0.675-4.659,1.511-5.143,7.012-6.361c3.22-0.709,6.416-1.252,9.506-1.777
		c10.747-1.825,20.894-3.547,29.138-11.975c8.442-8.629,12.998-20.328,17.401-31.641c0.788-2.023,1.572-4.033,2.37-6.015
		c1.245-3.087,2.558-6.141,3.881-9.197c0.805-1.864,1.716-3.718,2.63-5.571c1.17-2.379,2.384-4.838,3.312-7.261l0.72-1.83
		c1.255-3.157,1.255-3.157-0.771-6.422l-0.955-1.55c-7.108-11.656-12.081-26.501-15.201-45.384
		c-5.102-30.891-7.115-71.759,11.59-93.209C647.076,402.137,641.724,401.054,637.311,400.16z"></path>
	<path fill="#03566D" d="M365.553,518.207c0.999,2.096,2.033,4.263,3.049,6.013l1.044,1.811c1.368,2.399,1.368,2.399,3.25,2.41
		c0.539,0.003,1.17,0.007,1.93,0.032c1.712,0.038,3.421-0.254,5.287-0.578c1.852-0.321,3.765-0.651,5.713-0.651
		c0.147,0,0.293,0.002,0.443,0.005c5.396,0.143,11.252,1.102,16.692,2.723c0.917-5.142,1.9-10.312,2.889-15.508
		c5.894-31.017,11.992-63.091,5.232-94.25c-1.726-7.949-4.175-15.5-10.382-16.921c-4.87-1.112-11.777,0.053-17.326,0.987
		l-2.244,0.375c-8.766,1.421-29.155,6.311-29.155,21.003c-1.405,13.271-2.463,27.154-0.781,40.014
		c0.726,7.78,4.26,24.714,7.572,36.305c0.235,0.817,0.737,1.959,1.272,3.172c0.996,2.266,2.026,4.604,2.169,6.581
		C363.302,513.481,364.397,515.78,365.553,518.207z"></path>
	<path fill="#03566D" d="M68.314,351.867c35.717,11.758,74.844,15.15,110.193,9.553l0.003,0.031c1.262-0.182,2.81-0.365,4.533-0.568
		c7.521-0.882,20.109-2.36,23.305-6.119c1.18-1.385,1.201-2.839,1.136-5.738c-0.014-0.576-0.027-1.18-0.027-1.813l0.003-3.566
		c0.02-11.046,0.041-22.466-1.699-33.52c-3.875-24.647-19.485-55.603-50.727-61.725c-30.417-5.96-58.391,13.155-74.425,33.033
		c-10.092,12.507-17.272,26.452-20.215,39.267c-1.211,5.27-1.842,10.778-2.456,16.105c-0.181,1.577-0.362,3.157-0.559,4.731
		c-0.038,0.3-0.147,0.907-0.28,1.639c-0.177,0.969-0.566,3.104-0.607,3.951c1.078,1.139,6.388,2.889,8.711,3.655
		C66.5,351.21,67.615,351.58,68.314,351.867z"></path>
	<path fill="#03566D" d="M105.017,419.349c30.952,4.517,54.977,4.973,75.605,1.422l0.003,0.019c2.943-0.454,5.914-0.725,8.793-0.989
		c2.609-0.237,5.218-0.476,7.817-0.848l0.003,0.022c1.18-0.179,2.452-0.339,3.776-0.505c6.562-0.819,14.727-1.838,17.725-6.634
		c3.124-5.005,3.37-15.861,3.52-22.349l0.02-0.955c0.14-5.783,0.57-23.379-7.094-25.348c-1.357-0.327-7.006,2.05-9.741,3.201
		c-2.098,0.883-3.909,1.644-5.092,1.965c-6.644,1.799-13.854,3.274-22.05,4.509c-27.473,4.135-56.897,3.177-85.08-2.768
		c-6.501-1.375-14.049-3.02-21.331-5.184c-1.306-0.389-3.622-1.472-6.555-2.839c-3.653-1.709-10.358-4.84-12.193-4.84
		c-0.058,0-0.113,0.003-0.164,0.01c-3.257,1.417-3.95,12.516-1.552,26.95c2.306,13.742,5.808,21.68,18.534,26.926
		C80.753,415.563,93.195,417.622,105.017,419.349z"></path>
	<path fill="#03566D" d="M165.887,588.211c1.245-0.12,2.927-0.326,4.854-0.655l0.095-0.174l0.872-0.002
		c3.334-0.62,7.294-1.609,11.168-3.217c28.415-11.804,61.15-36.302,59.902-66.49c-0.928-22.466-9.195-44.3-17.19-65.416
		c-1.886-4.974-3.755-9.918-5.522-14.837l-0.467-1.257c-1.139-3.047-2.309-6.178-2.858-9.473c-7.572,2.715-17.749,3.62-26.075,4.362
		c-3.551,0.315-6.617,0.588-8.864,0.952c-16.542,2.846-36.726,3.17-59.987,0.95c-17.224-1.642-36.859-3.953-54.066-10.558
		l0.839,3.027c6.821,24.678,13.875,50.197,25.88,73.449c2.217,4.294,4.499,8.547,6.78,12.797c3.977,7.41,8.09,15.072,11.767,22.84
		c1.835,3.88,3.516,7.785,5.191,11.682c3.162,7.343,6.433,14.939,10.672,22.018l1.051,1.765c3.861,6.521,7.197,12.154,13.899,14.656
		C152.227,587.764,159.028,588.868,165.887,588.211z"></path>
	<path fill="#03566D" d="M296.79,591.248c-0.679-1.555-1.299-2.989-1.722-4.161c-2.002-5.529-4.328-11.533-7.111-18.356
		c-4.932-11.264-11.177-21.992-18.541-31.847l-0.232-0.35c-0.778-1.223-1.224-1.84-1.473-2.152h-0.222l-0.522-0.67
		c-2.831-3.617-4.669-5.597-6.276-5.711c-1.405-0.099-3.319,1.132-6.272,3.977c-2.984,2.873-5.215,7.471-7.579,12.34
		c-2.005,4.129-4.079,8.399-6.78,11.912c-15.031,19.519-45.103,38.208-68.46,42.547l-0.078,0.012
		c-7.746,1.073-13.486,1.02-20.024-0.331c0.825,1.096,1.63,2.183,2.432,3.255c8.735,11.745,16.279,21.885,31.324,28.027
		c15.437,6.296,35.55,9.465,56.601,8.885c16.917-0.454,27.593-9.226,39.953-19.386c1.487-1.221,2.995-2.459,4.533-3.701
		c1.166-0.941,2.599-1.951,4.113-3.012c4.297-3.025,9.649-6.784,9.854-10.094C300.477,599.716,298.431,595.021,296.79,591.248z"></path>
	<path fill="#03566D" d="M268.461,518.887c1.767,1.612,3.571,3.281,5.201,5.123l0.024,0.029
		c17.521,20.717,27.927,46.877,36.43,72.314c8.994-8.397,16.965-18.58,24.697-28.452c2.026-2.59,4.038-5.159,6.047-7.671
		c2.254-2.816,4.492-5.652,6.726-8.488c2.865-3.631,5.73-7.263,8.639-10.863c0.457-0.568,1.115-1.228,1.825-1.929
		c1.068-1.064,2.688-2.669,2.92-3.585c0.651-2.582-3.107-8.888-5.853-13.494c-1.494-2.51-2.906-4.882-3.697-6.711
		c-11.037-26.411-12.152-54.871-11.515-77.629c-13.711,14.032-26.491,29.237-38.879,43.976
		C290.572,493.945,279.777,506.788,268.461,518.887z"></path>
	<path fill="#03566D" d="M712.459,458.891c0.805-5.336,2.149-14.267,3.656-19.528c0.58-2.031,1.565-4.03,2.521-5.962
		c1.385-2.805,2.691-5.455,2.531-7.662c-0.266-3.736-7.05-10.694-10.655-13.239c-6.685-4.717-14.328-4.613-22.401-4.485
		l-2.466,0.031c-2.268,0.014-4.441-0.026-6.487-0.068c-1.555-0.032-3.029-0.063-4.43-0.063c-9.243,0-15.236,1.346-19.847,12.435
		c-6.603,15.875-6.91,32.811-6.63,51.71c0.29,19.634,4.257,39.353,11.163,55.528c0.246,0.573,0.518,1.257,0.819,2.007
		c1.357,3.38,3.407,8.487,5.655,10.212c2.391,1.826,7.156,0.481,11.364-0.711c1.132-0.321,2.241-0.634,3.291-0.887l1.753-0.423
		c10.01-2.405,20.362-4.891,28.779-10.942c5.785-4.158,9.379-8.433,9.383-11.156c0.003-1.45-1.63-4.509-2.824-6.743
		c-0.727-1.359-1.388-2.613-1.767-3.559c-4.645-11.617-6.102-27.813-3.898-43.324C712.091,461.342,712.254,460.252,712.459,458.891z
		"></path>
	<path fill="#03566D" d="M1055.504,266.805c15.433,17.54,36.904,22.023,59.489,25.169c0.252-0.034,0.549-0.049,0.897-0.049
		c0.815,0,1.91,0.084,3.387,0.194l0.709,0.053l0.771-0.053c6.982-0.384,9.093-0.979,9.635-1.41c1.388-1.105,2.991-6.306,3.946-9.415
		c0.518-1.683,0.989-3.192,1.402-4.207c3.128-7.684,6.702-16.801,9.509-26.162c8.609-28.745,5.416-55.726-8.755-74.026
		c-13.537-17.48-36.979-31.88-62.174-19.874c-10.137,4.836-19.073,10.626-26.559,17.209c-5.972,5.254-11.146,10.527-15.819,16.121
		c-6.078,7.278-6.225,11.001-5.092,20.625C1028.996,233.914,1042.54,252.066,1055.504,266.805z"></path>
	<path fill="#03566D" d="M1061.848,327.214c17.923,4.146,32.9,6.867,48.851,1.259c13.636-4.797,16.634-11.717,17.456-25.925
		c-22.783,3.844-53.783-4.171-71.71-18.737c-22.323-18.14-37.692-45.608-40.877-72.626c-9.13,12.657-18.07,29.117-15.526,48.621
		C1004.173,294.026,1027.277,319.219,1061.848,327.214z"></path>
	<path fill="#03566D" d="M1093.659,343.215c-47.682,0-97.972-26.752-103.951-73.253c-16.556,12.115-28.343,26.713-40.754,44.733
		c-3.329,4.831-7.125,9.574-10.791,14.158c-5.573,6.965-11.337,14.165-15.553,21.794l-0.498,0.902h-0.563
		c-1.334,1.226-5.283,6.716-7.023,9.137c-1.068,1.484-1.924,2.671-2.309,3.14c-0.802,0.982-2.169,2.393-3.898,4.176
		c-3.878,3.997-14.171,14.615-12.64,17.453l0.191,0.587c3.554,25.376,11.255,56.938,39.482,75.924
		c0.897,0.605,1.948,1.371,3.09,2.203c3.806,2.78,9.543,7.018,12.473,6.661c2.224-0.244,6.19-2.323,9.69-4.158
		c2.626-1.378,5.109-2.679,7.139-3.407c9.785-3.51,19.792-9.199,31.505-17.903c16.262-12.088,30.205-23.718,42.627-35.558
		c2.37-2.261,4.778-4.521,7.2-6.794c18.67-17.517,37.958-35.615,45.976-59.803C1094.587,343.212,1094.123,343.215,1093.659,343.215z
		"></path>
	<path fill="#03566D" d="M885.47,392.681c-5.768,5.121-14.113,8.856-22.221,12.481c-4.652,2.081-9.049,4.047-12.623,6.143
		c-1.081,0.634-2.442,1.34-3.915,2.103c-3.98,2.058-9.431,4.879-10.822,7.372c-1.187,2.125-1.194,6.571-1.201,9.818
		c0,1.17-0.003,2.249-0.051,3.146c-0.795,15.307-0.536,28.462,0.795,40.216l-0.026,0.005l0.026,0.183h0.003l-0.003,0l0.01,0.07
		h0.003c0.078,6.068,3.005,13.607,4.748,17.57c4.011,9.125,3.997,9.129,12.238,7.857c11.034-1.7,19.861-2.86,27.777-3.648
		l0.491-0.049c21.174-2.104,43.04-4.279,60.209-16.723C909.437,460.38,892.206,433.488,885.47,392.681z"></path>
	<polygon fill="#03566D" points="834.344,474.169 834.095,474.217 834.589,474.217 835.432,474.147 835.432,474.147 	"></polygon>
	<path fill="#03566D" d="M824.234,422.746c-3.353,0.397-6.637,0.996-10.082,1.623c-3.254,0.593-6.624,1.207-10.068,1.635
		c-10.525,1.395-21.31,2.142-31.737,2.863c-8.766,0.607-17.828,1.235-26.675,2.244c-1.811,0.208-3.506,0.285-5.092,0.356
		c-5.362,0.24-8.598,0.385-11.354,4.971c-3.046,5.068-4.086,12.393-5.007,18.856c-0.222,1.569-0.44,3.09-0.675,4.528
		c-1.641,12.69-2.565,27.662,3.087,42.056l0.283,0.73c1.207,3.085,1.207,3.085,2.548,3.672l1.112,0.5
		c3.428,1.595,10.15,1.468,15.536,1.371c1.33-0.024,2.623-0.048,3.83-0.048c1.149,0,2.22,0.022,3.182,0.084
		c4.813,0.312,9.673,0.844,14.369,1.359c5.546,0.607,11.279,1.235,16.91,1.494c18.868,0.863,34.929-2.838,49.387-7.178
		C822.727,485.508,819.517,458.245,824.234,422.746z"></path>
	<polygon fill="#03566D" points="833.691,474.154 833.69,474.146 833.69,474.154 	"></polygon>
	<path fill="#03566D" d="M833.697,474.217c0-0.012-0.002-0.023-0.004-0.035h-0.001C833.694,474.194,833.697,474.207,833.697,474.217
		z"></path>
	<path fill="#03566D" d="M719.683,642.053c-12.203-14.158-35.799-15.57-50.499-3.036c-12.804,10.924-18.708,41.263-20.041,55.779
		c-0.815,6.32-1.62,11.938-2.469,17.234l-0.208,1.306c-0.597,3.813-0.955,6.095-1.282,7.442h0.007
		c-1.651,12.643-2.347,25.932-2.251,43.081c0.027,4.969,0.488,10.246,0.938,15.348c0.686,7.831,1.395,15.928,0.645,23.609
		c-0.266,2.684-0.536,4.069-1.528,6.501c-1.409,3.441-3.056,6.105-4.652,8.68c-2.575,4.164-4.802,7.759-5.58,13.851
		c-1.968,15.396-1.102,28.721,2.503,38.534c2.654,7.238,7.06,13.592,10.6,18.322c1.081,1.443,2.63,2.875,4.27,4.393
		c2.575,2.384,5.239,4.85,6.388,7.725c1.412,3.53,1.023,10.15,0.709,15.468c-0.092,1.576-0.177,2.981-0.191,4.045
		c-0.075,5.512-0.392,11.081-0.699,16.47l-0.259,4.611c-0.757,14.154-0.696,28.609-0.634,42.586
		c0.014,3.008,0.027,6.016,0.031,9.025c35.635-15.256,65.134-20.836,87.764-16.573c-2.797-11.995-4.246-23.875-5.205-33.057
		c-0.334-3.206-0.764-6.487-1.201-9.806c-1.279-9.796-2.606-19.925-1.709-29.496c0.549-5.86,3.036-9.403,5.665-13.158
		c0.993-1.415,2.04-2.906,3.063-4.639c3.738-6.303,5.808-14.076,6.508-24.462c1.34-19.83-2.619-36.969-12.108-52.402
		c-1.17-1.9-3.377-3.98-5.512-5.993c-2.783-2.626-5.665-5.345-6.913-8.213c-1.948-4.482-0.9-12.203-0.058-18.411
		c0.273-2.005,0.518-3.82,0.617-5.242c0.348-4.959,0.873-9.966,1.381-14.809c0.672-6.398,1.368-13.015,1.647-19.536
		c0.457-10.519,0.358-21.273,0.263-31.672c-0.037-4.066-0.072-8.128-0.078-12.183c-0.003-1.927,0.017-3.898,0.038-5.901
		C729.792,671.845,729.966,654.13,719.683,642.053z"></path>
	<path fill="#03566D" d="M600.813,749.643c1.552-0.362,3.155-0.709,4.785-1.068c7.599-1.658,15.457-3.37,21.658-7.118l1.924-1.143
		c0.948-0.556,1.842-1.081,1.988-1.279c0.051-0.113,0.109-0.614,0.16-1.057c0.102-0.877,0.246-2.115,0.655-3.987
		c0.177-2.95,0.583-6.173,1.167-9.328c0.375-2.476,0.607-4.014,0.846-4.963c0.464-3.308,1.177-7.544,1.818-11.344
		c0.706-4.199,1.375-8.162,1.525-9.809c2.115-16.74,5.805-38.05,15.696-56.775c-17.807-0.682-34.803,0.604-50.564,2.111
		c-0.757,0.072-1.525,0.126-2.292,0.181c-1.477,0.106-2.961,0.208-4.403,0.457l-1.487,0.239c-2.176,0.334-2.261,0.348-3.472,1.675
		c-0.791,0.87-1.542,2.769-2.268,4.604c-0.716,1.808-1.453,3.68-2.408,5.048c-7.892,11.371-19.727,19.059-33.323,21.648
		c-17.954,3.424-41.082-2.125-49.5-22.374c-0.853-2.05-1.286-3.588-1.603-4.707c-0.593-2.118-0.593-2.118-5.014-2.408
		c-2.78-0.188-5.706-0.106-8.53-0.017c-3.503,0.096-6.971,0.099-10.457,0.15c-2.715,0.041-5.495,0.078-8.268,0.044
		c2.599,7.544,2.943,15.843,3.278,23.899c0.109,2.654,0.218,5.276,0.409,7.828c0.542,7.285,0.628,14.676,0.713,21.825
		c0.075,6.596,0.153,13.418,0.597,20.099c0.133,2.012,0.191,4.188,0.252,6.422c0.15,5.658,0.307,11.508,1.695,16.17
		c1.259,4.24,1.259,4.24,4.642,4.884c0.887,0.171,1.951,0.372,3.233,0.668c4.379,1.01,8.394,1.832,12.272,2.517
		c14.98,2.65,30.297,3.162,44.619,3.322C561.515,756.451,580.455,754.408,600.813,749.643z"></path>
	<path fill="#03566D" d="M468.249,770.646c-0.508-4.625-1.057-9.24-1.61-13.858c-1.078-9.045-2.193-18.401-2.967-27.688
		c-0.668-8.025-0.784-16.15-0.897-24.011c-0.102-7.04-0.205-14.318-0.709-21.446c-0.167-2.37-0.205-5.177-0.242-8.148
		c-0.143-11.054-0.321-24.813-7.019-30.638c-9.124-7.937-31.767-4.959-42.003,0.836c-10.894,6.177-19.062,19.182-22.401,35.679
		c-4.529,22.401-4.973,47.736-1.279,73.262c0.498,3.445,1.081,6.91,1.668,10.389c1.405,8.363,2.858,17.013,3.151,25.563
		c0.068,2.019,0.177,4.144,0.29,6.327c0.515,10.017,1.102,21.375-1.883,30.321c-1.04,3.114-2.654,5.948-4.212,8.687
		c-1.548,2.725-3.012,5.297-3.963,8.124c-2.483,7.405-3.083,16.368-1.838,27.402c0.87,7.718,2.35,17.674,6.092,26.211
		c1.17,2.677,2.391,4.963,3.571,7.173c2.872,5.379,5.348,10.024,5.826,17.613c0.686,10.945,1.722,22.163,2.722,33.012
		c1.729,18.759,3.516,38.128,3.619,57.133c4.976-1.589,11.136-2.149,16.672-2.476c12.671-0.996,25.515-1.139,37.722-1.139
		c1.177,0,2.34,0,3.503,0.003c6.098,0.014,12.142,1.177,17.985,2.302c4.976,0.958,9.717,1.872,14.451,2.128
		c-5.082-14.216-5.945-31.73-6.712-47.289c-0.239-4.819-0.471-9.492-0.812-13.885l-0.419-5.437
		c-0.825-10.867-1.681-22.105-3.342-32.456c-0.153-0.958-0.314-1.879-0.467-2.766c-0.979-5.641-1.828-10.508,0.539-16.508
		c5.696-14.461,7.313-28.507,5.085-44.203c-1.487-10.502-6.235-17.473-11.733-25.546c-1.757-2.578-3.557-5.229-5.31-8.083
		c-5.038-8.199-4.202-19.441-3.394-30.311C468.365,781.028,468.778,775.459,468.249,770.646z"></path>
	<path fill="#03566D" d="M756.484,1076.879c14.451-5.355,25.301-11.661,33.166-19.287c12.111-11.736-3.772-36.31-8.926-43.561
		c-14.328-20.14-36.723-29.544-63.142-26.47c-23.217,2.701-46.007,9.188-60.966,17.347c-8.745,4.768-12.834,11.136-16.596,19.864
		l-0.181,0.382c-1.651,3.38-2.333,4.993-2.616,5.747l2.265,2.302h-3.38c-0.706,1.415-1.988,5.389-2.688,7.95
		c-2.21,8.684,0.096,14.506,7.718,19.448c5.222,3.39,11.368,6.051,17.313,8.626c2.306,0.999,4.591,1.988,6.801,3.008
		C694.59,1085.798,727.845,1087.49,756.484,1076.879z"></path>
	<path fill="#03566D" d="M419.122,1095.134c2.347,0.143,4.587,0.283,6.654,0.46c19.455,1.664,35.212,1.572,49.578-0.29
		c14.782-1.92,27.098-7.466,41.177-18.544c9.588-7.541,14.55-13.851,11.545-23.803c-3.496-11.593-11.33-20.055-23.288-25.157
		c-32.613-7.848-61.573-9.748-90.851-5.887c-2.572,0.338-4.98,0.9-7.357,1.726l-0.003-0.007
		c-6.668,2.353-11.954,6.576-18.343,14.601c-8.592,10.802-17.125,32.385-8.155,44.397
		C387.791,1093.189,405.165,1094.267,419.122,1095.134z"></path>
</g>
</svg>
